<?xml version="1.0" encoding="utf-8"?>
<!DOCTYPE svg PUBLIC "-//W3C//DTD SVG 20010904//EN" "http://www.w3.org/TR/2001/REC-SVG-20010904/DTD/svg10.dtd">
<svg xmlns="http://www.w3.org/2000/svg" xml:space="preserve" xmlns:xlink="http://www.w3.org/1999/xlink" width="656" height="656" viewBox="0 0 656 656">
<desc></desc>
<rect width="656" height="656" fill="#ffffff" cx="0" cy="0" />
<defs>
<rect id="p" width="16" height="16" />
<circle id="circle" r="8" stroke-width="0" fill="8638bf" />
<rect id="hor" width="16" height="4" />
<rect id="ver" width="4" height="16" />
<polygon id="3d1" points="0,0 16,0 0,16" stroke-width="0" fill="8638bf" />
<polygon id="3d2" points="0,16 16,0 16,16" stroke-width="0" fill="#c39cdf" />
</defs>
<g fill="#8638bf">
<use x="32" y="32" xlink:href="#p" />
<use x="48" y="32" xlink:href="#p" />
<use x="64" y="32" xlink:href="#p" />
<use x="80" y="32" xlink:href="#p" />
<use x="96" y="32" xlink:href="#p" />
<use x="112" y="32" xlink:href="#p" />
<use x="128" y="32" xlink:href="#p" />
<use x="160" y="32" xlink:href="#p" />
<use x="176" y="32" xlink:href="#p" />
<use x="192" y="32" xlink:href="#p" />
<use x="208" y="32" xlink:href="#p" />
<use x="224" y="32" xlink:href="#p" />
<use x="240" y="32" xlink:href="#p" />
<use x="272" y="32" xlink:href="#p" />
<use x="304" y="32" xlink:href="#p" />
<use x="320" y="32" xlink:href="#p" />
<use x="352" y="32" xlink:href="#p" />
<use x="432" y="32" xlink:href="#p" />
<use x="480" y="32" xlink:href="#p" />
<use x="512" y="32" xlink:href="#p" />
<use x="528" y="32" xlink:href="#p" />
<use x="544" y="32" xlink:href="#p" />
<use x="560" y="32" xlink:href="#p" />
<use x="576" y="32" xlink:href="#p" />
<use x="592" y="32" xlink:href="#p" />
<use x="608" y="32" xlink:href="#p" />
<use x="32" y="48" xlink:href="#p" />
<use x="128" y="48" xlink:href="#p" />
<use x="176" y="48" xlink:href="#p" />
<use x="192" y="48" xlink:href="#p" />
<use x="208" y="48" xlink:href="#p" />
<use x="224" y="48" xlink:href="#p" />
<use x="240" y="48" xlink:href="#p" />
<use x="256" y="48" xlink:href="#p" />
<use x="288" y="48" xlink:href="#p" />
<use x="304" y="48" xlink:href="#p" />
<use x="320" y="48" xlink:href="#p" />
<use x="384" y="48" xlink:href="#p" />
<use x="400" y="48" xlink:href="#p" />
<use x="416" y="48" xlink:href="#p" />
<use x="432" y="48" xlink:href="#p" />
<use x="448" y="48" xlink:href="#p" />
<use x="464" y="48" xlink:href="#p" />
<use x="480" y="48" xlink:href="#p" />
<use x="512" y="48" xlink:href="#p" />
<use x="608" y="48" xlink:href="#p" />
<use x="32" y="64" xlink:href="#p" />
<use x="64" y="64" xlink:href="#p" />
<use x="80" y="64" xlink:href="#p" />
<use x="96" y="64" xlink:href="#p" />
<use x="128" y="64" xlink:href="#p" />
<use x="256" y="64" xlink:href="#p" />
<use x="288" y="64" xlink:href="#p" />
<use x="304" y="64" xlink:href="#p" />
<use x="320" y="64" xlink:href="#p" />
<use x="336" y="64" xlink:href="#p" />
<use x="368" y="64" xlink:href="#p" />
<use x="400" y="64" xlink:href="#p" />
<use x="448" y="64" xlink:href="#p" />
<use x="512" y="64" xlink:href="#p" />
<use x="544" y="64" xlink:href="#p" />
<use x="560" y="64" xlink:href="#p" />
<use x="576" y="64" xlink:href="#p" />
<use x="608" y="64" xlink:href="#p" />
<use x="32" y="80" xlink:href="#p" />
<use x="64" y="80" xlink:href="#p" />
<use x="80" y="80" xlink:href="#p" />
<use x="96" y="80" xlink:href="#p" />
<use x="128" y="80" xlink:href="#p" />
<use x="192" y="80" xlink:href="#p" />
<use x="208" y="80" xlink:href="#p" />
<use x="224" y="80" xlink:href="#p" />
<use x="256" y="80" xlink:href="#p" />
<use x="272" y="80" xlink:href="#p" />
<use x="288" y="80" xlink:href="#p" />
<use x="304" y="80" xlink:href="#p" />
<use x="336" y="80" xlink:href="#p" />
<use x="352" y="80" xlink:href="#p" />
<use x="384" y="80" xlink:href="#p" />
<use x="400" y="80" xlink:href="#p" />
<use x="432" y="80" xlink:href="#p" />
<use x="448" y="80" xlink:href="#p" />
<use x="464" y="80" xlink:href="#p" />
<use x="512" y="80" xlink:href="#p" />
<use x="544" y="80" xlink:href="#p" />
<use x="560" y="80" xlink:href="#p" />
<use x="576" y="80" xlink:href="#p" />
<use x="608" y="80" xlink:href="#p" />
<use x="32" y="96" xlink:href="#p" />
<use x="64" y="96" xlink:href="#p" />
<use x="80" y="96" xlink:href="#p" />
<use x="96" y="96" xlink:href="#p" />
<use x="128" y="96" xlink:href="#p" />
<use x="160" y="96" xlink:href="#p" />
<use x="176" y="96" xlink:href="#p" />
<use x="208" y="96" xlink:href="#p" />
<use x="240" y="96" xlink:href="#p" />
<use x="256" y="96" xlink:href="#p" />
<use x="288" y="96" xlink:href="#p" />
<use x="304" y="96" xlink:href="#p" />
<use x="320" y="96" xlink:href="#p" />
<use x="336" y="96" xlink:href="#p" />
<use x="368" y="96" xlink:href="#p" />
<use x="400" y="96" xlink:href="#p" />
<use x="416" y="96" xlink:href="#p" />
<use x="432" y="96" xlink:href="#p" />
<use x="512" y="96" xlink:href="#p" />
<use x="544" y="96" xlink:href="#p" />
<use x="560" y="96" xlink:href="#p" />
<use x="576" y="96" xlink:href="#p" />
<use x="608" y="96" xlink:href="#p" />
<use x="32" y="112" xlink:href="#p" />
<use x="128" y="112" xlink:href="#p" />
<use x="160" y="112" xlink:href="#p" />
<use x="176" y="112" xlink:href="#p" />
<use x="240" y="112" xlink:href="#p" />
<use x="256" y="112" xlink:href="#p" />
<use x="272" y="112" xlink:href="#p" />
<use x="336" y="112" xlink:href="#p" />
<use x="416" y="112" xlink:href="#p" />
<use x="432" y="112" xlink:href="#p" />
<use x="448" y="112" xlink:href="#p" />
<use x="464" y="112" xlink:href="#p" />
<use x="480" y="112" xlink:href="#p" />
<use x="512" y="112" xlink:href="#p" />
<use x="608" y="112" xlink:href="#p" />
<use x="32" y="128" xlink:href="#p" />
<use x="48" y="128" xlink:href="#p" />
<use x="64" y="128" xlink:href="#p" />
<use x="80" y="128" xlink:href="#p" />
<use x="96" y="128" xlink:href="#p" />
<use x="112" y="128" xlink:href="#p" />
<use x="128" y="128" xlink:href="#p" />
<use x="160" y="128" xlink:href="#p" />
<use x="192" y="128" xlink:href="#p" />
<use x="224" y="128" xlink:href="#p" />
<use x="256" y="128" xlink:href="#p" />
<use x="288" y="128" xlink:href="#p" />
<use x="320" y="128" xlink:href="#p" />
<use x="352" y="128" xlink:href="#p" />
<use x="384" y="128" xlink:href="#p" />
<use x="416" y="128" xlink:href="#p" />
<use x="448" y="128" xlink:href="#p" />
<use x="480" y="128" xlink:href="#p" />
<use x="512" y="128" xlink:href="#p" />
<use x="528" y="128" xlink:href="#p" />
<use x="544" y="128" xlink:href="#p" />
<use x="560" y="128" xlink:href="#p" />
<use x="576" y="128" xlink:href="#p" />
<use x="592" y="128" xlink:href="#p" />
<use x="608" y="128" xlink:href="#p" />
<use x="176" y="144" xlink:href="#p" />
<use x="192" y="144" xlink:href="#p" />
<use x="208" y="144" xlink:href="#p" />
<use x="224" y="144" xlink:href="#p" />
<use x="240" y="144" xlink:href="#p" />
<use x="256" y="144" xlink:href="#p" />
<use x="288" y="144" xlink:href="#p" />
<use x="304" y="144" xlink:href="#p" />
<use x="336" y="144" xlink:href="#p" />
<use x="368" y="144" xlink:href="#p" />
<use x="416" y="144" xlink:href="#p" />
<use x="432" y="144" xlink:href="#p" />
<use x="480" y="144" xlink:href="#p" />
<use x="48" y="160" xlink:href="#p" />
<use x="64" y="160" xlink:href="#p" />
<use x="80" y="160" xlink:href="#p" />
<use x="96" y="160" xlink:href="#p" />
<use x="112" y="160" xlink:href="#p" />
<use x="128" y="160" xlink:href="#p" />
<use x="144" y="160" xlink:href="#p" />
<use x="192" y="160" xlink:href="#p" />
<use x="208" y="160" xlink:href="#p" />
<use x="224" y="160" xlink:href="#p" />
<use x="320" y="160" xlink:href="#p" />
<use x="384" y="160" xlink:href="#p" />
<use x="448" y="160" xlink:href="#p" />
<use x="480" y="160" xlink:href="#p" />
<use x="528" y="160" xlink:href="#p" />
<use x="544" y="160" xlink:href="#p" />
<use x="608" y="160" xlink:href="#p" />
<use x="32" y="176" xlink:href="#p" />
<use x="48" y="176" xlink:href="#p" />
<use x="96" y="176" xlink:href="#p" />
<use x="112" y="176" xlink:href="#p" />
<use x="144" y="176" xlink:href="#p" />
<use x="160" y="176" xlink:href="#p" />
<use x="192" y="176" xlink:href="#p" />
<use x="240" y="176" xlink:href="#p" />
<use x="256" y="176" xlink:href="#p" />
<use x="320" y="176" xlink:href="#p" />
<use x="336" y="176" xlink:href="#p" />
<use x="352" y="176" xlink:href="#p" />
<use x="400" y="176" xlink:href="#p" />
<use x="432" y="176" xlink:href="#p" />
<use x="464" y="176" xlink:href="#p" />
<use x="512" y="176" xlink:href="#p" />
<use x="528" y="176" xlink:href="#p" />
<use x="544" y="176" xlink:href="#p" />
<use x="560" y="176" xlink:href="#p" />
<use x="32" y="192" xlink:href="#p" />
<use x="96" y="192" xlink:href="#p" />
<use x="128" y="192" xlink:href="#p" />
<use x="160" y="192" xlink:href="#p" />
<use x="240" y="192" xlink:href="#p" />
<use x="272" y="192" xlink:href="#p" />
<use x="304" y="192" xlink:href="#p" />
<use x="352" y="192" xlink:href="#p" />
<use x="368" y="192" xlink:href="#p" />
<use x="384" y="192" xlink:href="#p" />
<use x="416" y="192" xlink:href="#p" />
<use x="432" y="192" xlink:href="#p" />
<use x="448" y="192" xlink:href="#p" />
<use x="464" y="192" xlink:href="#p" />
<use x="480" y="192" xlink:href="#p" />
<use x="512" y="192" xlink:href="#p" />
<use x="544" y="192" xlink:href="#p" />
<use x="592" y="192" xlink:href="#p" />
<use x="608" y="192" xlink:href="#p" />
<use x="64" y="208" xlink:href="#p" />
<use x="80" y="208" xlink:href="#p" />
<use x="144" y="208" xlink:href="#p" />
<use x="176" y="208" xlink:href="#p" />
<use x="208" y="208" xlink:href="#p" />
<use x="224" y="208" xlink:href="#p" />
<use x="240" y="208" xlink:href="#p" />
<use x="288" y="208" xlink:href="#p" />
<use x="304" y="208" xlink:href="#p" />
<use x="352" y="208" xlink:href="#p" />
<use x="368" y="208" xlink:href="#p" />
<use x="416" y="208" xlink:href="#p" />
<use x="448" y="208" xlink:href="#p" />
<use x="464" y="208" xlink:href="#p" />
<use x="512" y="208" xlink:href="#p" />
<use x="528" y="208" xlink:href="#p" />
<use x="544" y="208" xlink:href="#p" />
<use x="560" y="208" xlink:href="#p" />
<use x="576" y="208" xlink:href="#p" />
<use x="592" y="208" xlink:href="#p" />
<use x="608" y="208" xlink:href="#p" />
<use x="32" y="224" xlink:href="#p" />
<use x="48" y="224" xlink:href="#p" />
<use x="64" y="224" xlink:href="#p" />
<use x="96" y="224" xlink:href="#p" />
<use x="112" y="224" xlink:href="#p" />
<use x="128" y="224" xlink:href="#p" />
<use x="144" y="224" xlink:href="#p" />
<use x="160" y="224" xlink:href="#p" />
<use x="176" y="224" xlink:href="#p" />
<use x="208" y="224" xlink:href="#p" />
<use x="240" y="224" xlink:href="#p" />
<use x="288" y="224" xlink:href="#p" />
<use x="304" y="224" xlink:href="#p" />
<use x="336" y="224" xlink:href="#p" />
<use x="352" y="224" xlink:href="#p" />
<use x="384" y="224" xlink:href="#p" />
<use x="416" y="224" xlink:href="#p" />
<use x="432" y="224" xlink:href="#p" />
<use x="448" y="224" xlink:href="#p" />
<use x="464" y="224" xlink:href="#p" />
<use x="480" y="224" xlink:href="#p" />
<use x="496" y="224" xlink:href="#p" />
<use x="512" y="224" xlink:href="#p" />
<use x="528" y="224" xlink:href="#p" />
<use x="544" y="224" xlink:href="#p" />
<use x="560" y="224" xlink:href="#p" />
<use x="32" y="240" xlink:href="#p" />
<use x="64" y="240" xlink:href="#p" />
<use x="112" y="240" xlink:href="#p" />
<use x="144" y="240" xlink:href="#p" />
<use x="160" y="240" xlink:href="#p" />
<use x="224" y="240" xlink:href="#p" />
<use x="272" y="240" xlink:href="#p" />
<use x="288" y="240" xlink:href="#p" />
<use x="320" y="240" xlink:href="#p" />
<use x="336" y="240" xlink:href="#p" />
<use x="352" y="240" xlink:href="#p" />
<use x="368" y="240" xlink:href="#p" />
<use x="400" y="240" xlink:href="#p" />
<use x="416" y="240" xlink:href="#p" />
<use x="432" y="240" xlink:href="#p" />
<use x="448" y="240" xlink:href="#p" />
<use x="496" y="240" xlink:href="#p" />
<use x="528" y="240" xlink:href="#p" />
<use x="560" y="240" xlink:href="#p" />
<use x="576" y="240" xlink:href="#p" />
<use x="32" y="256" xlink:href="#p" />
<use x="64" y="256" xlink:href="#p" />
<use x="80" y="256" xlink:href="#p" />
<use x="96" y="256" xlink:href="#p" />
<use x="128" y="256" xlink:href="#p" />
<use x="144" y="256" xlink:href="#p" />
<use x="176" y="256" xlink:href="#p" />
<use x="192" y="256" xlink:href="#p" />
<use x="224" y="256" xlink:href="#p" />
<use x="240" y="256" xlink:href="#p" />
<use x="256" y="256" xlink:href="#p" />
<use x="304" y="256" xlink:href="#p" />
<use x="336" y="256" xlink:href="#p" />
<use x="352" y="256" xlink:href="#p" />
<use x="368" y="256" xlink:href="#p" />
<use x="432" y="256" xlink:href="#p" />
<use x="448" y="256" xlink:href="#p" />
<use x="464" y="256" xlink:href="#p" />
<use x="496" y="256" xlink:href="#p" />
<use x="544" y="256" xlink:href="#p" />
<use x="560" y="256" xlink:href="#p" />
<use x="592" y="256" xlink:href="#p" />
<use x="608" y="256" xlink:href="#p" />
<use x="48" y="272" xlink:href="#p" />
<use x="80" y="272" xlink:href="#p" />
<use x="112" y="272" xlink:href="#p" />
<use x="144" y="272" xlink:href="#p" />
<use x="160" y="272" xlink:href="#p" />
<use x="208" y="272" xlink:href="#p" />
<use x="224" y="272" xlink:href="#p" />
<use x="256" y="272" xlink:href="#p" />
<use x="320" y="272" xlink:href="#p" />
<use x="368" y="272" xlink:href="#p" />
<use x="384" y="272" xlink:href="#p" />
<use x="400" y="272" xlink:href="#p" />
<use x="448" y="272" xlink:href="#p" />
<use x="464" y="272" xlink:href="#p" />
<use x="496" y="272" xlink:href="#p" />
<use x="528" y="272" xlink:href="#p" />
<use x="544" y="272" xlink:href="#p" />
<use x="592" y="272" xlink:href="#p" />
<use x="64" y="288" xlink:href="#p" />
<use x="128" y="288" xlink:href="#p" />
<use x="144" y="288" xlink:href="#p" />
<use x="160" y="288" xlink:href="#p" />
<use x="208" y="288" xlink:href="#p" />
<use x="224" y="288" xlink:href="#p" />
<use x="240" y="288" xlink:href="#p" />
<use x="256" y="288" xlink:href="#p" />
<use x="272" y="288" xlink:href="#p" />
<use x="320" y="288" xlink:href="#p" />
<use x="336" y="288" xlink:href="#p" />
<use x="368" y="288" xlink:href="#p" />
<use x="432" y="288" xlink:href="#p" />
<use x="448" y="288" xlink:href="#p" />
<use x="464" y="288" xlink:href="#p" />
<use x="496" y="288" xlink:href="#p" />
<use x="512" y="288" xlink:href="#p" />
<use x="544" y="288" xlink:href="#p" />
<use x="576" y="288" xlink:href="#p" />
<use x="608" y="288" xlink:href="#p" />
<use x="32" y="304" xlink:href="#p" />
<use x="96" y="304" xlink:href="#p" />
<use x="160" y="304" xlink:href="#p" />
<use x="192" y="304" xlink:href="#p" />
<use x="208" y="304" xlink:href="#p" />
<use x="224" y="304" xlink:href="#p" />
<use x="240" y="304" xlink:href="#p" />
<use x="256" y="304" xlink:href="#p" />
<use x="272" y="304" xlink:href="#p" />
<use x="288" y="304" xlink:href="#p" />
<use x="304" y="304" xlink:href="#p" />
<use x="368" y="304" xlink:href="#p" />
<use x="384" y="304" xlink:href="#p" />
<use x="416" y="304" xlink:href="#p" />
<use x="432" y="304" xlink:href="#p" />
<use x="480" y="304" xlink:href="#p" />
<use x="528" y="304" xlink:href="#p" />
<use x="32" y="320" xlink:href="#p" />
<use x="48" y="320" xlink:href="#p" />
<use x="64" y="320" xlink:href="#p" />
<use x="80" y="320" xlink:href="#p" />
<use x="96" y="320" xlink:href="#p" />
<use x="128" y="320" xlink:href="#p" />
<use x="144" y="320" xlink:href="#p" />
<use x="160" y="320" xlink:href="#p" />
<use x="176" y="320" xlink:href="#p" />
<use x="208" y="320" xlink:href="#p" />
<use x="224" y="320" xlink:href="#p" />
<use x="240" y="320" xlink:href="#p" />
<use x="256" y="320" xlink:href="#p" />
<use x="288" y="320" xlink:href="#p" />
<use x="320" y="320" xlink:href="#p" />
<use x="352" y="320" xlink:href="#p" />
<use x="384" y="320" xlink:href="#p" />
<use x="464" y="320" xlink:href="#p" />
<use x="512" y="320" xlink:href="#p" />
<use x="528" y="320" xlink:href="#p" />
<use x="544" y="320" xlink:href="#p" />
<use x="592" y="320" xlink:href="#p" />
<use x="608" y="320" xlink:href="#p" />
<use x="32" y="336" xlink:href="#p" />
<use x="48" y="336" xlink:href="#p" />
<use x="112" y="336" xlink:href="#p" />
<use x="144" y="336" xlink:href="#p" />
<use x="192" y="336" xlink:href="#p" />
<use x="224" y="336" xlink:href="#p" />
<use x="240" y="336" xlink:href="#p" />
<use x="272" y="336" xlink:href="#p" />
<use x="304" y="336" xlink:href="#p" />
<use x="320" y="336" xlink:href="#p" />
<use x="336" y="336" xlink:href="#p" />
<use x="352" y="336" xlink:href="#p" />
<use x="368" y="336" xlink:href="#p" />
<use x="416" y="336" xlink:href="#p" />
<use x="448" y="336" xlink:href="#p" />
<use x="480" y="336" xlink:href="#p" />
<use x="512" y="336" xlink:href="#p" />
<use x="528" y="336" xlink:href="#p" />
<use x="544" y="336" xlink:href="#p" />
<use x="608" y="336" xlink:href="#p" />
<use x="32" y="352" xlink:href="#p" />
<use x="48" y="352" xlink:href="#p" />
<use x="64" y="352" xlink:href="#p" />
<use x="80" y="352" xlink:href="#p" />
<use x="96" y="352" xlink:href="#p" />
<use x="128" y="352" xlink:href="#p" />
<use x="208" y="352" xlink:href="#p" />
<use x="240" y="352" xlink:href="#p" />
<use x="256" y="352" xlink:href="#p" />
<use x="320" y="352" xlink:href="#p" />
<use x="336" y="352" xlink:href="#p" />
<use x="384" y="352" xlink:href="#p" />
<use x="432" y="352" xlink:href="#p" />
<use x="448" y="352" xlink:href="#p" />
<use x="496" y="352" xlink:href="#p" />
<use x="512" y="352" xlink:href="#p" />
<use x="528" y="352" xlink:href="#p" />
<use x="544" y="352" xlink:href="#p" />
<use x="560" y="352" xlink:href="#p" />
<use x="576" y="352" xlink:href="#p" />
<use x="64" y="368" xlink:href="#p" />
<use x="80" y="368" xlink:href="#p" />
<use x="144" y="368" xlink:href="#p" />
<use x="160" y="368" xlink:href="#p" />
<use x="208" y="368" xlink:href="#p" />
<use x="224" y="368" xlink:href="#p" />
<use x="240" y="368" xlink:href="#p" />
<use x="272" y="368" xlink:href="#p" />
<use x="288" y="368" xlink:href="#p" />
<use x="304" y="368" xlink:href="#p" />
<use x="416" y="368" xlink:href="#p" />
<use x="528" y="368" xlink:href="#p" />
<use x="576" y="368" xlink:href="#p" />
<use x="608" y="368" xlink:href="#p" />
<use x="32" y="384" xlink:href="#p" />
<use x="48" y="384" xlink:href="#p" />
<use x="80" y="384" xlink:href="#p" />
<use x="112" y="384" xlink:href="#p" />
<use x="128" y="384" xlink:href="#p" />
<use x="144" y="384" xlink:href="#p" />
<use x="160" y="384" xlink:href="#p" />
<use x="176" y="384" xlink:href="#p" />
<use x="192" y="384" xlink:href="#p" />
<use x="224" y="384" xlink:href="#p" />
<use x="272" y="384" xlink:href="#p" />
<use x="304" y="384" xlink:href="#p" />
<use x="320" y="384" xlink:href="#p" />
<use x="336" y="384" xlink:href="#p" />
<use x="384" y="384" xlink:href="#p" />
<use x="464" y="384" xlink:href="#p" />
<use x="512" y="384" xlink:href="#p" />
<use x="560" y="384" xlink:href="#p" />
<use x="592" y="384" xlink:href="#p" />
<use x="64" y="400" xlink:href="#p" />
<use x="112" y="400" xlink:href="#p" />
<use x="160" y="400" xlink:href="#p" />
<use x="256" y="400" xlink:href="#p" />
<use x="272" y="400" xlink:href="#p" />
<use x="320" y="400" xlink:href="#p" />
<use x="368" y="400" xlink:href="#p" />
<use x="384" y="400" xlink:href="#p" />
<use x="448" y="400" xlink:href="#p" />
<use x="496" y="400" xlink:href="#p" />
<use x="512" y="400" xlink:href="#p" />
<use x="528" y="400" xlink:href="#p" />
<use x="592" y="400" xlink:href="#p" />
<use x="608" y="400" xlink:href="#p" />
<use x="32" y="416" xlink:href="#p" />
<use x="64" y="416" xlink:href="#p" />
<use x="80" y="416" xlink:href="#p" />
<use x="96" y="416" xlink:href="#p" />
<use x="128" y="416" xlink:href="#p" />
<use x="160" y="416" xlink:href="#p" />
<use x="176" y="416" xlink:href="#p" />
<use x="192" y="416" xlink:href="#p" />
<use x="208" y="416" xlink:href="#p" />
<use x="240" y="416" xlink:href="#p" />
<use x="304" y="416" xlink:href="#p" />
<use x="320" y="416" xlink:href="#p" />
<use x="384" y="416" xlink:href="#p" />
<use x="400" y="416" xlink:href="#p" />
<use x="512" y="416" xlink:href="#p" />
<use x="560" y="416" xlink:href="#p" />
<use x="576" y="416" xlink:href="#p" />
<use x="592" y="416" xlink:href="#p" />
<use x="32" y="432" xlink:href="#p" />
<use x="48" y="432" xlink:href="#p" />
<use x="64" y="432" xlink:href="#p" />
<use x="144" y="432" xlink:href="#p" />
<use x="192" y="432" xlink:href="#p" />
<use x="208" y="432" xlink:href="#p" />
<use x="224" y="432" xlink:href="#p" />
<use x="272" y="432" xlink:href="#p" />
<use x="320" y="432" xlink:href="#p" />
<use x="368" y="432" xlink:href="#p" />
<use x="400" y="432" xlink:href="#p" />
<use x="448" y="432" xlink:href="#p" />
<use x="464" y="432" xlink:href="#p" />
<use x="480" y="432" xlink:href="#p" />
<use x="496" y="432" xlink:href="#p" />
<use x="512" y="432" xlink:href="#p" />
<use x="32" y="448" xlink:href="#p" />
<use x="80" y="448" xlink:href="#p" />
<use x="112" y="448" xlink:href="#p" />
<use x="128" y="448" xlink:href="#p" />
<use x="144" y="448" xlink:href="#p" />
<use x="160" y="448" xlink:href="#p" />
<use x="176" y="448" xlink:href="#p" />
<use x="192" y="448" xlink:href="#p" />
<use x="224" y="448" xlink:href="#p" />
<use x="240" y="448" xlink:href="#p" />
<use x="256" y="448" xlink:href="#p" />
<use x="288" y="448" xlink:href="#p" />
<use x="304" y="448" xlink:href="#p" />
<use x="368" y="448" xlink:href="#p" />
<use x="384" y="448" xlink:href="#p" />
<use x="432" y="448" xlink:href="#p" />
<use x="448" y="448" xlink:href="#p" />
<use x="512" y="448" xlink:href="#p" />
<use x="576" y="448" xlink:href="#p" />
<use x="592" y="448" xlink:href="#p" />
<use x="608" y="448" xlink:href="#p" />
<use x="32" y="464" xlink:href="#p" />
<use x="64" y="464" xlink:href="#p" />
<use x="80" y="464" xlink:href="#p" />
<use x="96" y="464" xlink:href="#p" />
<use x="112" y="464" xlink:href="#p" />
<use x="144" y="464" xlink:href="#p" />
<use x="192" y="464" xlink:href="#p" />
<use x="208" y="464" xlink:href="#p" />
<use x="224" y="464" xlink:href="#p" />
<use x="240" y="464" xlink:href="#p" />
<use x="256" y="464" xlink:href="#p" />
<use x="272" y="464" xlink:href="#p" />
<use x="288" y="464" xlink:href="#p" />
<use x="336" y="464" xlink:href="#p" />
<use x="352" y="464" xlink:href="#p" />
<use x="368" y="464" xlink:href="#p" />
<use x="400" y="464" xlink:href="#p" />
<use x="448" y="464" xlink:href="#p" />
<use x="480" y="464" xlink:href="#p" />
<use x="496" y="464" xlink:href="#p" />
<use x="528" y="464" xlink:href="#p" />
<use x="560" y="464" xlink:href="#p" />
<use x="576" y="464" xlink:href="#p" />
<use x="32" y="480" xlink:href="#p" />
<use x="128" y="480" xlink:href="#p" />
<use x="144" y="480" xlink:href="#p" />
<use x="160" y="480" xlink:href="#p" />
<use x="176" y="480" xlink:href="#p" />
<use x="192" y="480" xlink:href="#p" />
<use x="224" y="480" xlink:href="#p" />
<use x="368" y="480" xlink:href="#p" />
<use x="400" y="480" xlink:href="#p" />
<use x="432" y="480" xlink:href="#p" />
<use x="448" y="480" xlink:href="#p" />
<use x="480" y="480" xlink:href="#p" />
<use x="496" y="480" xlink:href="#p" />
<use x="512" y="480" xlink:href="#p" />
<use x="528" y="480" xlink:href="#p" />
<use x="544" y="480" xlink:href="#p" />
<use x="560" y="480" xlink:href="#p" />
<use x="592" y="480" xlink:href="#p" />
<use x="608" y="480" xlink:href="#p" />
<use x="160" y="496" xlink:href="#p" />
<use x="192" y="496" xlink:href="#p" />
<use x="208" y="496" xlink:href="#p" />
<use x="288" y="496" xlink:href="#p" />
<use x="304" y="496" xlink:href="#p" />
<use x="400" y="496" xlink:href="#p" />
<use x="432" y="496" xlink:href="#p" />
<use x="448" y="496" xlink:href="#p" />
<use x="480" y="496" xlink:href="#p" />
<use x="544" y="496" xlink:href="#p" />
<use x="32" y="512" xlink:href="#p" />
<use x="48" y="512" xlink:href="#p" />
<use x="64" y="512" xlink:href="#p" />
<use x="80" y="512" xlink:href="#p" />
<use x="96" y="512" xlink:href="#p" />
<use x="112" y="512" xlink:href="#p" />
<use x="128" y="512" xlink:href="#p" />
<use x="160" y="512" xlink:href="#p" />
<use x="176" y="512" xlink:href="#p" />
<use x="208" y="512" xlink:href="#p" />
<use x="240" y="512" xlink:href="#p" />
<use x="256" y="512" xlink:href="#p" />
<use x="304" y="512" xlink:href="#p" />
<use x="336" y="512" xlink:href="#p" />
<use x="352" y="512" xlink:href="#p" />
<use x="384" y="512" xlink:href="#p" />
<use x="448" y="512" xlink:href="#p" />
<use x="480" y="512" xlink:href="#p" />
<use x="512" y="512" xlink:href="#p" />
<use x="544" y="512" xlink:href="#p" />
<use x="560" y="512" xlink:href="#p" />
<use x="592" y="512" xlink:href="#p" />
<use x="608" y="512" xlink:href="#p" />
<use x="32" y="528" xlink:href="#p" />
<use x="128" y="528" xlink:href="#p" />
<use x="160" y="528" xlink:href="#p" />
<use x="176" y="528" xlink:href="#p" />
<use x="192" y="528" xlink:href="#p" />
<use x="224" y="528" xlink:href="#p" />
<use x="272" y="528" xlink:href="#p" />
<use x="288" y="528" xlink:href="#p" />
<use x="336" y="528" xlink:href="#p" />
<use x="400" y="528" xlink:href="#p" />
<use x="448" y="528" xlink:href="#p" />
<use x="480" y="528" xlink:href="#p" />
<use x="544" y="528" xlink:href="#p" />
<use x="592" y="528" xlink:href="#p" />
<use x="608" y="528" xlink:href="#p" />
<use x="32" y="544" xlink:href="#p" />
<use x="64" y="544" xlink:href="#p" />
<use x="80" y="544" xlink:href="#p" />
<use x="96" y="544" xlink:href="#p" />
<use x="128" y="544" xlink:href="#p" />
<use x="160" y="544" xlink:href="#p" />
<use x="176" y="544" xlink:href="#p" />
<use x="224" y="544" xlink:href="#p" />
<use x="240" y="544" xlink:href="#p" />
<use x="256" y="544" xlink:href="#p" />
<use x="288" y="544" xlink:href="#p" />
<use x="336" y="544" xlink:href="#p" />
<use x="352" y="544" xlink:href="#p" />
<use x="368" y="544" xlink:href="#p" />
<use x="384" y="544" xlink:href="#p" />
<use x="416" y="544" xlink:href="#p" />
<use x="432" y="544" xlink:href="#p" />
<use x="464" y="544" xlink:href="#p" />
<use x="480" y="544" xlink:href="#p" />
<use x="496" y="544" xlink:href="#p" />
<use x="512" y="544" xlink:href="#p" />
<use x="528" y="544" xlink:href="#p" />
<use x="544" y="544" xlink:href="#p" />
<use x="576" y="544" xlink:href="#p" />
<use x="608" y="544" xlink:href="#p" />
<use x="32" y="560" xlink:href="#p" />
<use x="64" y="560" xlink:href="#p" />
<use x="80" y="560" xlink:href="#p" />
<use x="96" y="560" xlink:href="#p" />
<use x="128" y="560" xlink:href="#p" />
<use x="160" y="560" xlink:href="#p" />
<use x="224" y="560" xlink:href="#p" />
<use x="240" y="560" xlink:href="#p" />
<use x="304" y="560" xlink:href="#p" />
<use x="368" y="560" xlink:href="#p" />
<use x="464" y="560" xlink:href="#p" />
<use x="512" y="560" xlink:href="#p" />
<use x="544" y="560" xlink:href="#p" />
<use x="560" y="560" xlink:href="#p" />
<use x="32" y="576" xlink:href="#p" />
<use x="64" y="576" xlink:href="#p" />
<use x="80" y="576" xlink:href="#p" />
<use x="96" y="576" xlink:href="#p" />
<use x="128" y="576" xlink:href="#p" />
<use x="160" y="576" xlink:href="#p" />
<use x="176" y="576" xlink:href="#p" />
<use x="192" y="576" xlink:href="#p" />
<use x="224" y="576" xlink:href="#p" />
<use x="320" y="576" xlink:href="#p" />
<use x="352" y="576" xlink:href="#p" />
<use x="368" y="576" xlink:href="#p" />
<use x="384" y="576" xlink:href="#p" />
<use x="400" y="576" xlink:href="#p" />
<use x="416" y="576" xlink:href="#p" />
<use x="448" y="576" xlink:href="#p" />
<use x="464" y="576" xlink:href="#p" />
<use x="480" y="576" xlink:href="#p" />
<use x="496" y="576" xlink:href="#p" />
<use x="560" y="576" xlink:href="#p" />
<use x="576" y="576" xlink:href="#p" />
<use x="608" y="576" xlink:href="#p" />
<use x="32" y="592" xlink:href="#p" />
<use x="128" y="592" xlink:href="#p" />
<use x="160" y="592" xlink:href="#p" />
<use x="176" y="592" xlink:href="#p" />
<use x="192" y="592" xlink:href="#p" />
<use x="208" y="592" xlink:href="#p" />
<use x="224" y="592" xlink:href="#p" />
<use x="240" y="592" xlink:href="#p" />
<use x="272" y="592" xlink:href="#p" />
<use x="288" y="592" xlink:href="#p" />
<use x="304" y="592" xlink:href="#p" />
<use x="384" y="592" xlink:href="#p" />
<use x="400" y="592" xlink:href="#p" />
<use x="464" y="592" xlink:href="#p" />
<use x="480" y="592" xlink:href="#p" />
<use x="528" y="592" xlink:href="#p" />
<use x="608" y="592" xlink:href="#p" />
<use x="32" y="608" xlink:href="#p" />
<use x="48" y="608" xlink:href="#p" />
<use x="64" y="608" xlink:href="#p" />
<use x="80" y="608" xlink:href="#p" />
<use x="96" y="608" xlink:href="#p" />
<use x="112" y="608" xlink:href="#p" />
<use x="128" y="608" xlink:href="#p" />
<use x="176" y="608" xlink:href="#p" />
<use x="192" y="608" xlink:href="#p" />
<use x="240" y="608" xlink:href="#p" />
<use x="256" y="608" xlink:href="#p" />
<use x="304" y="608" xlink:href="#p" />
<use x="400" y="608" xlink:href="#p" />
<use x="432" y="608" xlink:href="#p" />
<use x="464" y="608" xlink:href="#p" />
<use x="496" y="608" xlink:href="#p" />
<use x="528" y="608" xlink:href="#p" />
<use x="560" y="608" xlink:href="#p" />
<use x="576" y="608" xlink:href="#p" />
<use x="592" y="608" xlink:href="#p" />
<use x="608" y="608" xlink:href="#p" />
</g>
</svg>